<?xml version="1.0" encoding="UTF-8" standalone="no"?>
<!-- Created with Inkscape (http://www.inkscape.org/) -->

<svg
   width="303.80264mm"
   height="217.81374mm"
   viewBox="0 0 303.80264 217.81373"
   version="1.1"
   id="svg5"
   inkscape:version="1.1.1 (3bf5ae0d25, 2021-09-20)"
   sodipodi:docname="archlinux-wallpaper.svg"
   xmlns:inkscape="http://www.inkscape.org/namespaces/inkscape"
   xmlns:sodipodi="http://sodipodi.sourceforge.net/DTD/sodipodi-0.dtd"
   xmlns="http://www.w3.org/2000/svg"
   xmlns:svg="http://www.w3.org/2000/svg">
  <sodipodi:namedview
     id="namedview7"
     pagecolor="#ffffff"
     bordercolor="#666666"
     borderopacity="1.0"
     inkscape:pageshadow="2"
     inkscape:pageopacity="0.0"
     inkscape:pagecheckerboard="0"
     inkscape:document-units="mm"
     showgrid="false"
     inkscape:zoom="0.69219276"
     inkscape:cx="80.179978"
     inkscape:cy="468.80005"
     inkscape:window-width="1920"
     inkscape:window-height="1015"
     inkscape:window-x="0"
     inkscape:window-y="0"
     inkscape:window-maximized="1"
     inkscape:current-layer="layer1"
     fit-margin-top="0"
     fit-margin-left="0"
     fit-margin-right="0"
     fit-margin-bottom="0" />
  <defs
     id="defs2">
    <linearGradient
       id="lg"
       y1="9.9084301"
       x2="25.431995"
       x1="34.76569"
       y2="28.426884"
       gradientTransform="matrix(1.6484606,0,0,1.8980482,144.15416,88.460661)"
       gradientUnits="userSpaceOnUse">
      <stop
         stop-color="#fff"
         stop-opacity="0"
         offset="0"
         id="stop1224" />
      <stop
         stop-color="#fff"
         stop-opacity=".27451"
         offset="1"
         id="stop1226" />
    </linearGradient>
  </defs>
  <g
     inkscape:label="Layer 1"
     inkscape:groupmode="layer"
     id="layer1"
     transform="translate(4.8854971,4.715281)">
    <rect
       style="font-variation-settings:normal;opacity:1;vector-effect:none;fill:#282a2e;fill-opacity:1;stroke:none;stroke-width:10.333;stroke-linecap:butt;stroke-linejoin:miter;stroke-miterlimit:4;stroke-dasharray:none;stroke-dashoffset:0;stroke-opacity:1;-inkscape-stroke:none;stop-color:#000000;stop-opacity:1"
       id="rect1488"
       width="303.80264"
       height="217.81374"
       x="-4.8854971"
       y="-4.715281" />
    <rect
       style="fill:#1d1f21;fill-opacity:1;stroke-width:6.49851"
       id="rect1112"
       width="13.065187"
       height="13.065187"
       x="120.4379"
       y="73.690811" />
    <rect
       style="fill:#282a2e;fill-opacity:1;stroke-width:6.49851"
       id="rect1114"
       width="13.065187"
       height="13.065187"
       x="134.19308"
       y="73.690811" />
    <rect
       style="fill:#373b41;fill-opacity:1;stroke-width:6.49851"
       id="rect1196"
       width="13.065187"
       height="13.065187"
       x="147.94826"
       y="73.690811" />
    <rect
       style="fill:#969896;fill-opacity:1;stroke-width:6.49851"
       id="rect1198"
       width="13.065187"
       height="13.065187"
       x="161.70343"
       y="73.690811" />
    <rect
       style="fill:#b4b7b4;fill-opacity:1;stroke-width:6.49851"
       id="rect1200"
       width="13.065187"
       height="13.065187"
       x="120.4379"
       y="87.445992" />
    <rect
       style="fill:#c5c8cf;fill-opacity:1;stroke-width:6.49851"
       id="rect1202"
       width="13.065187"
       height="13.065187"
       x="134.19308"
       y="87.445992" />
    <rect
       style="fill:#e0e0e0;fill-opacity:1;stroke-width:6.49851"
       id="rect1204"
       width="13.065187"
       height="13.065187"
       x="147.94826"
       y="87.445992" />
    <rect
       style="fill:#ffffff;fill-opacity:1;stroke-width:6.49851"
       id="rect1206"
       width="13.065187"
       height="13.065187"
       x="161.70343"
       y="87.445992" />
    <rect
       style="fill:#cc6666;fill-opacity:1;stroke-width:6.49851"
       id="rect1208"
       width="13.065187"
       height="13.065187"
       x="120.4379"
       y="101.20116" />
    <rect
       style="fill:#de935f;fill-opacity:1;stroke-width:6.49851"
       id="rect1210"
       width="13.065187"
       height="13.065187"
       x="134.19308"
       y="101.20116" />
    <rect
       style="fill:#f0c674;fill-opacity:1;stroke-width:6.49851"
       id="rect1212"
       width="13.065187"
       height="13.065187"
       x="147.94826"
       y="101.20116" />
    <rect
       style="fill:#b5bd68;fill-opacity:1;stroke-width:6.49851"
       id="rect1214"
       width="13.065187"
       height="13.065187"
       x="161.70343"
       y="101.20116" />
    <rect
       style="fill:#8abeb7;fill-opacity:1;stroke-width:6.49851"
       id="rect1216"
       width="13.065187"
       height="13.065187"
       x="120.4379"
       y="114.95635" />
    <rect
       style="fill:#81a2be;fill-opacity:1;stroke-width:6.49851"
       id="rect1218"
       width="13.065187"
       height="13.065187"
       x="134.19308"
       y="114.95635" />
    <rect
       style="fill:#b294bb;fill-opacity:1;stroke-width:6.49851"
       id="rect1220"
       width="13.065187"
       height="13.065187"
       x="147.94826"
       y="114.95635" />
    <rect
       style="fill:#a3685a;fill-opacity:1;stroke-width:6.49851"
       id="rect1222"
       width="13.065187"
       height="13.065187"
       x="161.70343"
       y="114.95635" />
    <path
       id="path1371"
       style="fill:#ffffff;stroke-width:0.707883"
       d="m 147.28516,78.07415 c -1.79405,4.419989 -3.53821,8.864112 -5.57831,13.178525 1.11665,1.185407 2.27437,2.337125 3.52976,3.376178 -1.39031,-0.720074 -2.69637,-1.595826 -3.89276,-2.605753 -4.36953,9.03416 -9.24287,17.81167 -14.07802,26.60175 -1.07056,1.93058 -2.14039,3.86157 -3.21157,5.7918 4.8762,-2.79711 9.81532,-5.57843 15.20501,-7.30655 1.31874,-0.42721 2.66846,-0.7489 4.02905,-1.01078 -0.56419,-2.31303 -0.54014,-4.77102 0.17802,-6.99526 0.54875,-1.64393 1.53904,-3.38032 3.25908,-3.99382 1.40263,-0.48737 2.89032,0.30763 3.74553,1.41393 1.68493,2.15207 2.17711,5.02442 1.95896,7.69529 -0.0467,0.64645 -0.17361,1.28218 -0.30006,1.91667 5.73073,1.11001 10.99397,3.78686 16.05753,6.59344 0.98651,0.54912 1.96296,1.11606 2.94426,1.67439 -1.48198,-2.73882 -2.96419,-5.47753 -4.44487,-8.21706 -1.69086,-1.34315 -3.33769,-2.75291 -5.1747,-3.89784 1.47732,0.51919 2.8451,1.28709 4.18977,2.07902 -4.46428,-8.37272 -8.99949,-16.715873 -13.01812,-25.315138 -1.79486,-3.872404 -3.41273,-7.823004 -5.0876,-11.747949 -0.10365,0.256386 -0.2073,0.512772 -0.31096,0.769157 z" />
    <path
       d="m 147.60325,78.203926 c -2.01675,4.944073 -3.2414,8.182431 -5.48609,12.979761 1.37612,1.458942 3.06796,3.152207 5.81243,5.071275 -2.95045,-1.214019 -4.96156,-2.429455 -6.4651,-3.694448 -2.8733,5.995779 -7.37827,14.533556 -16.51351,30.947976 7.17794,-4.14395 12.74332,-6.70083 17.92928,-7.6763 -0.22228,-0.95635 -0.3405,-1.99552 -0.332,-3.07504 l 0.006,-0.22653 c 0.11397,-4.59982 2.50732,-8.13712 5.34239,-7.89715 2.83438,0.23997 5.04156,4.16519 4.92759,8.76573 -0.0219,0.86645 -0.12247,1.69892 -0.29307,2.47193 5.13004,1.00378 10.64233,3.54862 17.7247,7.63736 -1.39665,-2.57104 -2.64748,-4.88794 -3.83814,-7.09583 -1.87519,-1.45329 -3.83036,-3.34404 -7.82,-5.39195 2.74235,0.71283 4.70743,1.53682 6.23788,2.45565 C 152.73201,90.940883 151.75372,87.944407 147.6034,78.203926 v -6.5e-5 z"
       fill="#1793d1"
       id="path1231"
       style="font-variation-settings:normal;opacity:1;vector-effect:none;fill:#373b41;fill-opacity:1;stroke-width:6.49851;stroke-linecap:butt;stroke-linejoin:miter;stroke-miterlimit:4;stroke-dasharray:none;stroke-dashoffset:0;stroke-opacity:1;-inkscape-stroke:none;stop-color:#000000;stop-opacity:1" />
    <path
       id="path2522"
       fill-opacity="0.16568"
       fill="#ffffff"
       d="m 160.35436,105.13118 c -9.81976,-13.327327 -12.0956,-24.069463 -12.67253,-26.634126 5.23834,12.081453 5.20224,12.230106 12.67253,26.634126 z"
       style="stroke-width:0.707883" />
  </g>
</svg>
