<?xml version="1.0" encoding="UTF-8" standalone="no"?>
<!-- Created with Inkscape (http://www.inkscape.org/) -->

<svg
   width="508mm"
   height="285.75mm"
   viewBox="0 0 508 285.75"
   version="1.1"
   id="svg115"
   inkscape:version="1.1.1 (3bf5ae0d25, 2021-09-20)"
   sodipodi:docname="eyes.svg"
   xmlns:inkscape="http://www.inkscape.org/namespaces/inkscape"
   xmlns:sodipodi="http://sodipodi.sourceforge.net/DTD/sodipodi-0.dtd"
   xmlns="http://www.w3.org/2000/svg"
   xmlns:svg="http://www.w3.org/2000/svg">
  <sodipodi:namedview
     id="namedview117"
     pagecolor="#ffffff"
     bordercolor="#666666"
     borderopacity="1.0"
     inkscape:pageshadow="2"
     inkscape:pageopacity="0.0"
     inkscape:pagecheckerboard="0"
     inkscape:document-units="mm"
     showgrid="false"
     fit-margin-top="0"
     fit-margin-left="0"
     fit-margin-right="0"
     fit-margin-bottom="0"
     inkscape:zoom="0.37514956"
     inkscape:cx="967.03707"
     inkscape:cy="858.17787"
     inkscape:window-width="960"
     inkscape:window-height="1015"
     inkscape:window-x="960"
     inkscape:window-y="32"
     inkscape:window-maximized="0"
     inkscape:current-layer="layer1" />
  <defs
     id="defs112" />
  <g
     inkscape:label="Layer 1"
     inkscape:groupmode="layer"
     id="layer1"
     transform="translate(2.3013575,1.9283637)">
    <rect
       style="fill:none;stroke-width:7.95121;-inkscape-stroke:none;stop-color:#000000"
       id="rect141"
       width="508"
       height="285.75"
       x="-2.3013575"
       y="-1.9283637" />
    <rect
       style="font-variation-settings:normal;opacity:1;vector-effect:none;fill:#282a2e;fill-opacity:1;stroke-width:11.4901;stroke-linecap:butt;stroke-linejoin:miter;stroke-miterlimit:4;stroke-dasharray:none;stroke-dashoffset:0;stroke-opacity:1;-inkscape-stroke:none;stop-color:#000000;stop-opacity:1"
       id="rect237"
       width="508"
       height="285.75"
       x="-2.3013575"
       y="-1.9283637" />
    <g
       id="g2213" />
    <g
       id="g2535"
       transform="translate(6.6987765)">
      <g
         id="g2227"
         transform="matrix(0.40933522,0.10968104,-0.10968104,0.40933522,208.55343,33.878971)">
        <path
           id="path1095"
           style="font-variation-settings:normal;opacity:1;vector-effect:none;fill:#cc6666;fill-opacity:1;stroke:none;stroke-width:37.7953;stroke-linecap:butt;stroke-linejoin:miter;stroke-miterlimit:4;stroke-dasharray:none;stroke-dashoffset:0;stroke-opacity:1;-inkscape-stroke:none;stop-color:#000000;stop-opacity:1"
           d="m 661.4707,387.43164 c 0,0 -79.32489,103.64913 -45.57031,195.62109 -0.008,-18.072 1.36189,-36.12868 4.41406,-53.98242 5.73889,-34.01139 18.39171,-67.30732 38.29688,-95.55469 0.11928,-14.5052 1.0339,-29.84045 2.85937,-46.08398 z m 18.86133,162.99414 c -4.76468,10.01426 -8.82242,20.35437 -12.15039,30.85938 -6.02661,19.22022 -10.14781,38.87186 -12.44531,58.75195 105.41042,94.35767 273.36523,41.24609 273.36523,41.24609 0,0 -184.51953,13.23914 -248.76953,-130.85742 z"
           transform="matrix(0.26458333,0,0,0.26458333,-2.3013575,-1.9283637)" />
        <g
           id="g2217"
           transform="rotate(-6.4734824,201.17143,159.35429)">
          <path
             style="font-variation-settings:normal;opacity:1;vector-effect:none;fill:#de935f;fill-opacity:1;stroke:none;stroke-width:10;stroke-linecap:butt;stroke-linejoin:miter;stroke-miterlimit:4;stroke-dasharray:none;stroke-dashoffset:0;stroke-opacity:1;-inkscape-stroke:none;stop-color:#000000;stop-opacity:1"
             d="m 183.75822,139.11109 c 0,0 16.85629,-31.25369 64.58396,-13.35646 31.94694,11.97969 23.76235,70.39967 23.76235,70.39967 0,0 -23.76235,-70.39967 -88.34631,-57.04321 z"
             id="path1895"
             sodipodi:nodetypes="cscc" />
          <path
             id="path1897"
             style="font-variation-settings:normal;opacity:1;vector-effect:none;fill:#b5bd68;fill-opacity:1;stroke:none;stroke-width:37.7953;stroke-linecap:butt;stroke-linejoin:miter;stroke-miterlimit:4;stroke-dasharray:none;stroke-dashoffset:0;stroke-opacity:1;-inkscape-stroke:none;stop-color:#000000;stop-opacity:1"
             d="m 1091.5176,448.21484 c 0,0 -30.6487,37.58304 -81.5821,71.99024 7.3658,10.55894 13.4627,22.05153 18.3692,33.85156 3.5707,8.86241 6.6008,17.90397 9.1933,27.06641 38.0317,-61.12804 54.0196,-132.90821 54.0196,-132.90821 z m -375.34572,92.58399 c -2.85684,0.4716 -5.70927,0.96869 -8.55079,1.51172 -0.71823,0.18063 -1.44411,0.35187 -2.16992,0.52148 8.60896,30.64292 47.89701,123.17583 208.67188,123.08594 21.30524,-0.0119 40.41043,-5.96625 57.46484,-15.89258 -21.03081,-27.83401 -45.98408,-53.20917 -75.20312,-72.72851 -2.71381,-1.82738 -5.47661,-3.58013 -8.26172,-5.29688 -51.70009,9.32702 -110.24243,3.76442 -171.95117,-31.20117 z"
             transform="matrix(0.26458333,0,0,0.26458333,-2.3013575,-1.9283637)" />
        </g>
        <path
           style="font-variation-settings:normal;opacity:1;vector-effect:none;fill:#81a2be;fill-opacity:1;stroke:none;stroke-width:10;stroke-linecap:butt;stroke-linejoin:miter;stroke-miterlimit:4;stroke-dasharray:none;stroke-dashoffset:0;stroke-opacity:1;-inkscape-stroke:none;stop-color:#000000;stop-opacity:1"
           d="m 243.6396,110.22185 c 0,0 -40.5918,-29.079904 -65.94907,-0.45023 -25.35726,28.62968 -9.51572,73.68998 -9.51572,73.68998 0,0 -8.29527,-79.97216 75.46479,-73.23975 z"
           id="path2159"
           sodipodi:nodetypes="czcc" />
      </g>
      <path
         id="path2231"
         style="font-variation-settings:normal;vector-effect:none;fill:#cc6666;fill-opacity:1;stroke:none;stroke-width:4.23775;stroke-linecap:butt;stroke-linejoin:miter;stroke-miterlimit:4;stroke-dasharray:none;stroke-dashoffset:0;stroke-opacity:1;-inkscape-stroke:none;stop-color:#000000"
         d="m 221.78055,93.993054 c 0,0 11.59902,8.923546 10.61229,19.863966 -0.52358,-1.95749 -1.19594,-3.87333 -2.04461,-5.71838 -1.60854,-3.517 -3.94513,-6.75588 -6.92065,-9.237518 -0.43386,-1.567499 -0.97794,-3.201815 -1.64703,-4.908068 z m 2.68731,18.200156 c 0.80664,0.9463 1.54618,1.94842 2.21146,2.98957 1.21047,1.90672 2.22709,3.91546 3.05283,6.00186 -8.67805,13.27824 -28.40939,12.40009 -28.40939,12.40009 0,0 20.36826,-3.92087 23.1451,-21.39152 z" />
      <path
         style="font-variation-settings:normal;vector-effect:none;fill:#de935f;fill-opacity:1;stroke:none;stroke-width:4.23775;stroke-linecap:butt;stroke-linejoin:miter;stroke-miterlimit:4;stroke-dasharray:none;stroke-dashoffset:0;stroke-opacity:1;-inkscape-stroke:none;stop-color:#000000"
         d="m 222.6037,111.59513 c 0,0 -9.02805,-12.039028 -27.90578,-1.53964 -12.63598,7.02787 -5.53525,30.99692 -5.53525,30.99692 0,0 5.53525,-30.99692 33.44103,-29.45728 z"
         id="path2233"
         sodipodi:nodetypes="cscc" />
      <path
         id="path2235"
         style="font-variation-settings:normal;vector-effect:none;fill:#b5bd68;fill-opacity:1;stroke:none;stroke-width:4.23775;stroke-linecap:butt;stroke-linejoin:miter;stroke-miterlimit:4;stroke-dasharray:none;stroke-dashoffset:0;stroke-opacity:1;-inkscape-stroke:none;stop-color:#000000"
         d="m 178.13667,108.64205 c 0,0 4.02326,3.65786 10.24298,6.62636 -0.64122,1.29327 -1.12622,2.66898 -1.47411,4.05899 -0.2486,1.04206 -0.43428,2.09501 -0.56943,3.15408 -5.23334,-6.14591 -8.19944,-13.83943 -8.19944,-13.83943 z m 43.15918,4.02628 c 0.32462,0.005 0.64917,0.0125 0.97328,0.0255 0.0826,0.008 0.16598,0.015 0.24928,0.0217 -0.44519,3.54094 -3.26333,14.45455 -21.09227,17.11734 -2.36262,0.35287 -4.58008,0.0102 -6.63617,-0.80693 1.86927,-3.43598 4.21436,-6.66452 7.12981,-9.31466 0.27054,-0.24774 0.54775,-0.48803 0.82804,-0.72469 5.88779,0.17475 12.28676,-1.41528 18.54803,-6.31829 z" />
      <path
         style="font-variation-settings:normal;vector-effect:none;fill:#81a2be;fill-opacity:1;stroke:none;stroke-width:4.23775;stroke-linecap:butt;stroke-linejoin:miter;stroke-miterlimit:4;stroke-dasharray:none;stroke-dashoffset:0;stroke-opacity:1;-inkscape-stroke:none;stop-color:#000000"
         d="m 193.80528,105.7193 c 0,0 13.42614,-16.355579 26.94589,-7.417657 13.51976,8.937927 11.97752,29.120207 11.97752,29.120207 0,0 -5.37589,-33.645252 -38.92341,-21.70255 z"
         id="path2239"
         sodipodi:nodetypes="czcc" />
      <path
         style="font-variation-settings:normal;vector-effect:none;fill:#de935f;fill-opacity:1;stroke:none;stroke-width:4.23775;stroke-linecap:butt;stroke-linejoin:miter;stroke-miterlimit:4;stroke-dasharray:none;stroke-dashoffset:0;stroke-opacity:1;-inkscape-stroke:none;stop-color:#000000"
         d="m 222.6037,111.59513 c 0,0 -9.02805,-12.039028 -27.90578,-1.53964 -12.63598,7.02787 -5.53525,30.99692 -5.53525,30.99692 0,0 5.53525,-30.99692 33.44103,-29.45728 z"
         id="path2276"
         sodipodi:nodetypes="cscc" />
    </g>
  </g>
</svg>
