<?xml version="1.0" encoding="UTF-8" standalone="no"?>
<!-- Created with Inkscape (http://www.inkscape.org/) -->

<svg
   width="303.80264mm"
   height="217.81374mm"
   viewBox="0 0 303.80264 217.81373"
   version="1.1"
   id="svg5"
   inkscape:version="1.1.1 (3bf5ae0d25, 2021-09-20)"
   sodipodi:docname="hex.svg"
   xmlns:inkscape="http://www.inkscape.org/namespaces/inkscape"
   xmlns:sodipodi="http://sodipodi.sourceforge.net/DTD/sodipodi-0.dtd"
   xmlns="http://www.w3.org/2000/svg"
   xmlns:svg="http://www.w3.org/2000/svg">
  <sodipodi:namedview
     id="namedview7"
     pagecolor="#ffffff"
     bordercolor="#666666"
     borderopacity="1.0"
     inkscape:pageshadow="2"
     inkscape:pageopacity="0.0"
     inkscape:pagecheckerboard="0"
     inkscape:document-units="mm"
     showgrid="false"
     inkscape:zoom="0.69219276"
     inkscape:cx="-41.173502"
     inkscape:cy="468.07771"
     inkscape:window-width="1890"
     inkscape:window-height="1023"
     inkscape:window-x="14"
     inkscape:window-y="41"
     inkscape:window-maximized="1"
     inkscape:current-layer="layer1"
     fit-margin-top="0"
     fit-margin-left="0"
     fit-margin-right="0"
     fit-margin-bottom="0" />
  <defs
     id="defs2">
    <linearGradient
       id="lg"
       y1="9.9084301"
       x2="25.431995"
       x1="34.76569"
       y2="28.426884"
       gradientTransform="matrix(1.6484606,0,0,1.8980482,144.15416,88.460661)"
       gradientUnits="userSpaceOnUse">
      <stop
         stop-color="#fff"
         stop-opacity="0"
         offset="0"
         id="stop1224" />
      <stop
         stop-color="#fff"
         stop-opacity=".27451"
         offset="1"
         id="stop1226" />
    </linearGradient>
  </defs>
  <g
     inkscape:label="Layer 1"
     inkscape:groupmode="layer"
     id="layer1"
     transform="translate(4.8854971,4.715281)">
    <rect
       style="font-variation-settings:normal;opacity:1;vector-effect:none;fill:#282a2e;fill-opacity:1;stroke:none;stroke-width:10.333;stroke-linecap:butt;stroke-linejoin:miter;stroke-miterlimit:4;stroke-dasharray:none;stroke-dashoffset:0;stroke-opacity:1;-inkscape-stroke:none;stop-color:#000000;stop-opacity:1"
       id="rect1488"
       width="303.80264"
       height="217.81374"
       x="-4.8854971"
       y="-4.715281" />
    <path
       id="path1371"
       style="fill:#ffffff;stroke-width:0.707883"
       d="m -62.547622,-13.280462 c -1.79405,4.419989 -3.53821,8.864112 -5.57831,13.17852504 1.11665,1.18540696 2.27437,2.33712496 3.52976,3.37617796 -1.39031,-0.720074 -2.69637,-1.595826 -3.89276,-2.60575296 -4.36953,9.03415996 -9.24287,17.81166996 -14.07802,26.60174996 -1.07056,1.93058 -2.14039,3.86157 -3.21157,5.7918 4.8762,-2.79711 9.81532,-5.57843 15.20501,-7.30655 1.31874,-0.42721 2.66846,-0.7489 4.02905,-1.01078 -0.56419,-2.31303 -0.54014,-4.77102 0.17802,-6.99526 0.54875,-1.64393 1.53904,-3.38032 3.25908,-3.99382 1.40263,-0.48737 2.89032,0.30763 3.74553,1.41393 1.68493,2.15207 2.177105,5.02442 1.958955,7.69529 -0.0467,0.64645 -0.173605,1.28218 -0.300055,1.91667 5.730725,1.11001 10.993965,3.78686 16.057525,6.59344 0.98651,0.54912 1.96296,1.11606 2.94426,1.67439 -1.48198,-2.73882 -2.96419,-5.47753 -4.44487,-8.21706 -1.69086,-1.34315 -3.33769,-2.75291 -5.1747,-3.89784 1.47732,0.51919 2.8451,1.28709 4.18977,2.07902 -4.46428,-8.37272 -8.99949,-16.715873 -13.01812,-25.315138 -1.794855,-3.872404 -3.412725,-7.823004 -5.087595,-11.747949 -0.10365,0.256386 -0.2073,0.512772 -0.31096,0.769157 z" />
    <g
       id="g1323"
       transform="translate(-4.5202134,-2.8358939)">
      <path
         sodipodi:type="star"
         style="font-variation-settings:normal;opacity:1;vector-effect:none;fill:#de935f;fill-opacity:1;fill-rule:evenodd;stroke-width:24.5613;stroke-linecap:butt;stroke-linejoin:miter;stroke-miterlimit:4;stroke-dasharray:none;stroke-dashoffset:0;stroke-opacity:1;-inkscape-stroke:none;stop-color:#000000;stop-opacity:1"
         id="path736"
         inkscape:flatsided="true"
         sodipodi:sides="6"
         sodipodi:cx="204.00426"
         sodipodi:cy="274.82501"
         sodipodi:r1="78.940895"
         sodipodi:r2="39.470448"
         sodipodi:arg1="0.52359878"
         sodipodi:arg2="1.0471976"
         inkscape:rounded="0"
         inkscape:randomized="0"
         d="m 272.36908,314.29546 -68.36482,39.47045 -68.36482,-39.47045 0,-78.9409 68.36482,-39.47044 68.36482,39.47044 z"
         transform="matrix(0.26458333,0,0,0.26458333,116.67146,20.128028)" />
      <path
         sodipodi:type="star"
         style="font-variation-settings:normal;opacity:1;vector-effect:none;fill:#a3685a;fill-opacity:1;fill-rule:evenodd;stroke-width:24.5613;stroke-linecap:butt;stroke-linejoin:miter;stroke-miterlimit:4;stroke-dasharray:none;stroke-dashoffset:0;stroke-opacity:1;-inkscape-stroke:none;stop-color:#000000;stop-opacity:1"
         id="path818"
         inkscape:flatsided="true"
         sodipodi:sides="6"
         sodipodi:cx="204.00426"
         sodipodi:cy="274.82501"
         sodipodi:r1="78.940895"
         sodipodi:r2="39.470448"
         sodipodi:arg1="0.52359878"
         sodipodi:arg2="1.0471976"
         inkscape:rounded="0"
         inkscape:randomized="0"
         d="m 272.36908,314.29546 -68.36482,39.47045 -68.36482,-39.47045 0,-78.9409 68.36482,-39.47044 68.36482,39.47044 z"
         transform="matrix(0.26458333,0,0,0.26458333,155.66028,20.039947)" />
      <path
         sodipodi:type="star"
         style="font-variation-settings:normal;opacity:1;vector-effect:none;fill:#cc6666;fill-opacity:1;fill-rule:evenodd;stroke-width:24.5613;stroke-linecap:butt;stroke-linejoin:miter;stroke-miterlimit:4;stroke-dasharray:none;stroke-dashoffset:0;stroke-opacity:1;-inkscape-stroke:none;stop-color:#000000;stop-opacity:1"
         id="path820"
         inkscape:flatsided="true"
         sodipodi:sides="6"
         sodipodi:cx="204.00426"
         sodipodi:cy="274.82501"
         sodipodi:r1="78.940895"
         sodipodi:r2="39.470448"
         sodipodi:arg1="0.52359878"
         sodipodi:arg2="1.0471976"
         inkscape:rounded="0"
         inkscape:randomized="0"
         d="m 272.36908,314.29546 -68.36482,39.47045 -68.36482,-39.47045 0,-78.9409 68.36482,-39.47044 68.36482,39.47044 z"
         transform="matrix(0.26458333,0,0,0.26458333,39.459544,20.128028)" />
      <path
         sodipodi:type="star"
         style="font-variation-settings:normal;opacity:1;vector-effect:none;fill:#f0c674;fill-opacity:1;fill-rule:evenodd;stroke-width:24.5613;stroke-linecap:butt;stroke-linejoin:miter;stroke-miterlimit:4;stroke-dasharray:none;stroke-dashoffset:0;stroke-opacity:1;-inkscape-stroke:none;stop-color:#000000;stop-opacity:1"
         id="path822"
         inkscape:flatsided="true"
         sodipodi:sides="6"
         sodipodi:cx="204.00426"
         sodipodi:cy="274.82501"
         sodipodi:r1="78.940895"
         sodipodi:r2="39.470448"
         sodipodi:arg1="0.52359878"
         sodipodi:arg2="1.0471976"
         inkscape:rounded="0"
         inkscape:randomized="0"
         d="m 272.36908,314.29546 -68.36482,39.47045 -68.36482,-39.47045 0,-78.9409 68.36482,-39.47044 68.36482,39.47044 z"
         transform="matrix(0.26458333,0,0,0.26458333,78.448363,20.039947)" />
      <path
         sodipodi:type="star"
         style="font-variation-settings:normal;opacity:1;vector-effect:none;fill:#8abeb7;fill-opacity:1;fill-rule:evenodd;stroke-width:24.5613;stroke-linecap:butt;stroke-linejoin:miter;stroke-miterlimit:4;stroke-dasharray:none;stroke-dashoffset:0;stroke-opacity:1;-inkscape-stroke:none;stop-color:#000000;stop-opacity:1"
         id="path824"
         inkscape:flatsided="true"
         sodipodi:sides="6"
         sodipodi:cx="204.00426"
         sodipodi:cy="274.82501"
         sodipodi:r1="78.940895"
         sodipodi:r2="39.470448"
         sodipodi:arg1="0.52359878"
         sodipodi:arg2="1.0471976"
         inkscape:rounded="0"
         inkscape:randomized="0"
         d="m 272.36908,314.29546 -68.36482,39.47045 -68.36482,-39.47045 0,-78.9409 68.36482,-39.47044 68.36482,39.47044 z"
         transform="matrix(0.26458333,0,0,0.26458333,97.621355,53.878448)" />
      <path
         sodipodi:type="star"
         style="font-variation-settings:normal;opacity:1;vector-effect:none;fill:#b5bd68;fill-opacity:1;fill-rule:evenodd;stroke-width:24.5613;stroke-linecap:butt;stroke-linejoin:miter;stroke-miterlimit:4;stroke-dasharray:none;stroke-dashoffset:0;stroke-opacity:1;-inkscape-stroke:none;stop-color:#000000;stop-opacity:1"
         id="path826"
         inkscape:flatsided="true"
         sodipodi:sides="6"
         sodipodi:cx="204.00426"
         sodipodi:cy="274.82501"
         sodipodi:r1="78.940895"
         sodipodi:r2="39.470448"
         sodipodi:arg1="0.52359878"
         sodipodi:arg2="1.0471976"
         inkscape:rounded="0"
         inkscape:randomized="0"
         d="m 272.36908,314.29546 -68.36482,39.47045 -68.36482,-39.47045 0,-78.9409 68.36482,-39.47044 68.36482,39.47044 z"
         transform="matrix(0.26458333,0,0,0.26458333,136.61016,53.790367)" />
      <path
         sodipodi:type="star"
         style="font-variation-settings:normal;opacity:1;vector-effect:none;fill:#81a2be;fill-opacity:1;fill-rule:evenodd;stroke-width:24.5613;stroke-linecap:butt;stroke-linejoin:miter;stroke-miterlimit:4;stroke-dasharray:none;stroke-dashoffset:0;stroke-opacity:1;-inkscape-stroke:none;stop-color:#000000;stop-opacity:1"
         id="path830"
         inkscape:flatsided="true"
         sodipodi:sides="6"
         sodipodi:cx="204.00426"
         sodipodi:cy="274.82501"
         sodipodi:r1="78.940895"
         sodipodi:r2="39.470448"
         sodipodi:arg1="0.52359878"
         sodipodi:arg2="1.0471976"
         inkscape:rounded="0"
         inkscape:randomized="0"
         d="m 272.36908,314.29546 -68.36482,39.47045 -68.36482,-39.47045 0,-78.9409 68.36482,-39.47044 68.36482,39.47044 z"
         transform="matrix(0.26458333,0,0,0.26458333,58.869184,53.790367)" />
    </g>
  </g>
</svg>
